<?xml version="1.0" encoding="UTF-8" standalone="no"?>
<!DOCTYPE svg PUBLIC "-//W3C//DTD SVG 1.1//EN"
 "http://www.w3.org/Graphics/SVG/1.1/DTD/svg11.dtd">
<!-- Generated by graphviz version 13.1.0 (20250701.0955)
 -->
<!-- Title: ds18b20_basic_init Pages: 1 -->
<svg width="291pt" height="508pt"
 viewBox="0.00 0.00 291.00 508.00" xmlns="http://www.w3.org/2000/svg" xmlns:xlink="http://www.w3.org/1999/xlink">
<g id="graph0" class="graph" transform="scale(1 1) rotate(0) translate(4 504)">
<title>ds18b20_basic_init</title>
<!-- Node1 -->
<g id="Node000001" class="node">
<title>Node1</title>
<g id="a_Node000001"><a xlink:title="basic example init">
<polygon fill="#999999" stroke="#666666" points="99.25,-260 0,-260 0,-240 99.25,-240 99.25,-260"/>
<text xml:space="preserve" text-anchor="middle" x="49.62" y="-246.5" font-family="Helvetica,sans-Serif" font-size="10.00">ds18b20_basic_init</text>
</a>
</g>
</g>
<!-- Node2 -->
<g id="Node000002" class="node">
<title>Node2</title>
<g id="a_Node000002"><a xlink:href="group__ds18b20__base__driver.html#gaa7b94675deaafbe00917e7e232278c77" target="_top" xlink:title="close the chip">
<polygon fill="white" stroke="#666666" points="249.5,-500 168.25,-500 168.25,-480 249.5,-480 249.5,-500"/>
<text xml:space="preserve" text-anchor="middle" x="208.88" y="-486.5" font-family="Helvetica,sans-Serif" font-size="10.00">ds18b20_deinit</text>
</a>
</g>
</g>
<!-- Node1&#45;&gt;Node2 -->
<g id="edge1_Node000001_Node000002" class="edge">
<title>Node1&#45;&gt;Node2</title>
<g id="a_edge1_Node000001_Node000002"><a xlink:title=" ">
<path fill="none" stroke="#63b8ff" d="M51.36,-260.41C54.42,-295.7 69.3,-411.92 135.25,-471 141.46,-476.56 149.09,-480.53 157.06,-483.35"/>
<polygon fill="#63b8ff" stroke="#63b8ff" points="155.99,-486.69 166.57,-486.11 157.94,-479.96 155.99,-486.69"/>
</a>
</g>
</g>
<!-- Node3 -->
<g id="Node000003" class="node">
<title>Node3</title>
<g id="a_Node000003"><a xlink:href="group__ds18b20__base__driver.html#ga42a0bced6314bc11b3c47f1d83bbff9a" target="_top" xlink:title="initialize the chip">
<polygon fill="white" stroke="#666666" points="244.25,-462 173.5,-462 173.5,-442 244.25,-442 244.25,-462"/>
<text xml:space="preserve" text-anchor="middle" x="208.88" y="-448.5" font-family="Helvetica,sans-Serif" font-size="10.00">ds18b20_init</text>
</a>
</g>
</g>
<!-- Node1&#45;&gt;Node3 -->
<g id="edge2_Node000001_Node000003" class="edge">
<title>Node1&#45;&gt;Node3</title>
<g id="a_edge2_Node000001_Node000003"><a xlink:title=" ">
<path fill="none" stroke="#63b8ff" d="M52.22,-260.14C57.65,-291.13 78.34,-385.38 135.25,-433 142.95,-439.44 152.59,-443.73 162.3,-446.57"/>
<polygon fill="#63b8ff" stroke="#63b8ff" points="161.19,-449.9 171.73,-448.85 162.84,-443.1 161.19,-449.9"/>
</a>
</g>
</g>
<!-- Node4 -->
<g id="Node000004" class="node">
<title>Node4</title>
<g id="a_Node000004"><a xlink:href="group__ds18b20__interface__driver.html#gabb823545b537ecf6e62e279baaac6dc4" target="_top" xlink:title="interface print format data">
<polygon fill="white" stroke="#666666" points="272.38,-424 145.38,-424 145.38,-392 272.38,-392 272.38,-424"/>
<text xml:space="preserve" text-anchor="start" x="153.38" y="-410.5" font-family="Helvetica,sans-Serif" font-size="10.00">ds18b20_interface_debug</text>
<text xml:space="preserve" text-anchor="middle" x="208.88" y="-398.5" font-family="Helvetica,sans-Serif" font-size="10.00">_print</text>
</a>
</g>
</g>
<!-- Node1&#45;&gt;Node4 -->
<g id="edge3_Node000001_Node000004" class="edge">
<title>Node1&#45;&gt;Node4</title>
<g id="a_edge3_Node000001_Node000004"><a xlink:title=" ">
<path fill="none" stroke="#63b8ff" d="M54.4,-260.32C63.98,-285.12 91.63,-348.59 135.25,-383 136.4,-383.91 137.58,-384.78 138.79,-385.62"/>
<polygon fill="#63b8ff" stroke="#63b8ff" points="136.92,-388.58 147.3,-390.73 140.52,-382.58 136.92,-388.58"/>
</a>
</g>
</g>
<!-- Node5 -->
<g id="Node000005" class="node">
<title>Node5</title>
<g id="a_Node000005"><a xlink:href="group__ds18b20__interface__driver.html#ga03a7158f8be182347f2263bb61efb869" target="_top" xlink:title="interface bus deinit">
<polygon fill="white" stroke="#666666" points="270.88,-374 146.88,-374 146.88,-354 270.88,-354 270.88,-374"/>
<text xml:space="preserve" text-anchor="middle" x="208.88" y="-360.5" font-family="Helvetica,sans-Serif" font-size="10.00">ds18b20_interface_deinit</text>
</a>
</g>
</g>
<!-- Node1&#45;&gt;Node5 -->
<g id="edge4_Node000001_Node000005" class="edge">
<title>Node1&#45;&gt;Node5</title>
<g id="a_edge4_Node000001_Node000005"><a xlink:title=" ">
<path fill="none" stroke="#63b8ff" d="M56.87,-260.38C69.26,-280.05 98.9,-322.74 135.25,-345 137.68,-346.49 140.23,-347.86 142.85,-349.13"/>
<polygon fill="#63b8ff" stroke="#63b8ff" points="141.3,-352.27 151.88,-352.92 144.01,-345.82 141.3,-352.27"/>
</a>
</g>
</g>
<!-- Node6 -->
<g id="Node000006" class="node">
<title>Node6</title>
<g id="a_Node000006"><a xlink:href="group__ds18b20__interface__driver.html#ga0fc93e0908a80f48e859cf1aeb8d3136" target="_top" xlink:title="interface delay ms">
<polygon fill="white" stroke="#666666" points="280.25,-336 137.5,-336 137.5,-316 280.25,-316 280.25,-336"/>
<text xml:space="preserve" text-anchor="middle" x="208.88" y="-322.5" font-family="Helvetica,sans-Serif" font-size="10.00">ds18b20_interface_delay_ms</text>
</a>
</g>
</g>
<!-- Node1&#45;&gt;Node6 -->
<g id="edge5_Node000001_Node000006" class="edge">
<title>Node1&#45;&gt;Node6</title>
<g id="a_edge5_Node000001_Node000006"><a xlink:title=" ">
<path fill="none" stroke="#63b8ff" d="M63.01,-260.33C78.83,-273.04 107.48,-294.46 135.25,-307 139.28,-308.82 143.51,-310.49 147.83,-312.02"/>
<polygon fill="#63b8ff" stroke="#63b8ff" points="146.62,-315.31 157.21,-315.07 148.78,-308.65 146.62,-315.31"/>
</a>
</g>
</g>
<!-- Node7 -->
<g id="Node000007" class="node">
<title>Node7</title>
<g id="a_Node000007"><a xlink:href="group__ds18b20__interface__driver.html#gaffa80ae3f3b868b8acec66e67cd6533b" target="_top" xlink:title="interface delay us">
<polygon fill="white" stroke="#666666" points="278.75,-298 139,-298 139,-278 278.75,-278 278.75,-298"/>
<text xml:space="preserve" text-anchor="middle" x="208.88" y="-284.5" font-family="Helvetica,sans-Serif" font-size="10.00">ds18b20_interface_delay_us</text>
</a>
</g>
</g>
<!-- Node1&#45;&gt;Node7 -->
<g id="edge6_Node000001_Node000007" class="edge">
<title>Node1&#45;&gt;Node7</title>
<g id="a_edge6_Node000001_Node000007"><a xlink:title=" ">
<path fill="none" stroke="#63b8ff" d="M94.01,-260.48C112.4,-264.93 134.03,-270.16 153.48,-274.85"/>
<polygon fill="#63b8ff" stroke="#63b8ff" points="152.62,-278.25 163.16,-277.19 154.26,-271.44 152.62,-278.25"/>
</a>
</g>
</g>
<!-- Node8 -->
<g id="Node000008" class="node">
<title>Node8</title>
<g id="a_Node000008"><a xlink:href="group__ds18b20__interface__driver.html#gae2c7e5e56d2c7c9cbe0708c33b0fa08e" target="_top" xlink:title="interface disable the interrupt">
<polygon fill="white" stroke="#666666" points="282.5,-260 135.25,-260 135.25,-240 282.5,-240 282.5,-260"/>
<text xml:space="preserve" text-anchor="middle" x="208.88" y="-246.5" font-family="Helvetica,sans-Serif" font-size="10.00">ds18b20_interface_disable_irq</text>
</a>
</g>
</g>
<!-- Node1&#45;&gt;Node8 -->
<g id="edge7_Node000001_Node000008" class="edge">
<title>Node1&#45;&gt;Node8</title>
<g id="a_edge7_Node000001_Node000008"><a xlink:title=" ">
<path fill="none" stroke="#63b8ff" d="M99.52,-250C107.12,-250 115.15,-250 123.27,-250"/>
<polygon fill="#63b8ff" stroke="#63b8ff" points="123.25,-253.5 133.25,-250 123.25,-246.5 123.25,-253.5"/>
</a>
</g>
</g>
<!-- Node9 -->
<g id="Node000009" class="node">
<title>Node9</title>
<g id="a_Node000009"><a xlink:href="group__ds18b20__interface__driver.html#gaf6df67e763bd6dc9cd1f9b3f81a4ba77" target="_top" xlink:title="interface enable the interrupt">
<polygon fill="white" stroke="#666666" points="281.38,-222 136.38,-222 136.38,-202 281.38,-202 281.38,-222"/>
<text xml:space="preserve" text-anchor="middle" x="208.88" y="-208.5" font-family="Helvetica,sans-Serif" font-size="10.00">ds18b20_interface_enable_irq</text>
</a>
</g>
</g>
<!-- Node1&#45;&gt;Node9 -->
<g id="edge8_Node000001_Node000009" class="edge">
<title>Node1&#45;&gt;Node9</title>
<g id="a_edge8_Node000001_Node000009"><a xlink:title=" ">
<path fill="none" stroke="#63b8ff" d="M94.01,-239.52C112.4,-235.07 134.03,-229.84 153.48,-225.15"/>
<polygon fill="#63b8ff" stroke="#63b8ff" points="154.26,-228.56 163.16,-222.81 152.62,-221.75 154.26,-228.56"/>
</a>
</g>
</g>
<!-- Node10 -->
<g id="Node000010" class="node">
<title>Node10</title>
<g id="a_Node000010"><a xlink:href="group__ds18b20__interface__driver.html#gaae02ff3e162c03d6d44c502aa2c7c287" target="_top" xlink:title="interface bus init">
<polygon fill="white" stroke="#666666" points="265.62,-184 152.12,-184 152.12,-164 265.62,-164 265.62,-184"/>
<text xml:space="preserve" text-anchor="middle" x="208.88" y="-170.5" font-family="Helvetica,sans-Serif" font-size="10.00">ds18b20_interface_init</text>
</a>
</g>
</g>
<!-- Node1&#45;&gt;Node10 -->
<g id="edge9_Node000001_Node000010" class="edge">
<title>Node1&#45;&gt;Node10</title>
<g id="a_edge9_Node000001_Node000010"><a xlink:title=" ">
<path fill="none" stroke="#63b8ff" d="M63.01,-239.67C78.83,-226.96 107.48,-205.54 135.25,-193 139.28,-191.18 143.51,-189.51 147.83,-187.98"/>
<polygon fill="#63b8ff" stroke="#63b8ff" points="148.78,-191.35 157.21,-184.93 146.62,-184.69 148.78,-191.35"/>
</a>
</g>
</g>
<!-- Node11 -->
<g id="Node000011" class="node">
<title>Node11</title>
<g id="a_Node000011"><a xlink:href="group__ds18b20__interface__driver.html#gab0b723752250505718028cea3bfe2e33" target="_top" xlink:title="interface bus read">
<polygon fill="white" stroke="#666666" points="268.62,-146 149.12,-146 149.12,-126 268.62,-126 268.62,-146"/>
<text xml:space="preserve" text-anchor="middle" x="208.88" y="-132.5" font-family="Helvetica,sans-Serif" font-size="10.00">ds18b20_interface_read</text>
</a>
</g>
</g>
<!-- Node1&#45;&gt;Node11 -->
<g id="edge10_Node000001_Node000011" class="edge">
<title>Node1&#45;&gt;Node11</title>
<g id="a_edge10_Node000001_Node000011"><a xlink:title=" ">
<path fill="none" stroke="#63b8ff" d="M56.87,-239.62C69.26,-219.95 98.9,-177.26 135.25,-155 137.68,-153.51 140.23,-152.14 142.85,-150.87"/>
<polygon fill="#63b8ff" stroke="#63b8ff" points="144.01,-154.18 151.88,-147.08 141.3,-147.73 144.01,-154.18"/>
</a>
</g>
</g>
<!-- Node12 -->
<g id="Node000012" class="node">
<title>Node12</title>
<g id="a_Node000012"><a xlink:href="group__ds18b20__interface__driver.html#ga58ec641650609db605a648fc4d9709f0" target="_top" xlink:title="interface bus write">
<polygon fill="white" stroke="#666666" points="269.75,-108 148,-108 148,-88 269.75,-88 269.75,-108"/>
<text xml:space="preserve" text-anchor="middle" x="208.88" y="-94.5" font-family="Helvetica,sans-Serif" font-size="10.00">ds18b20_interface_write</text>
</a>
</g>
</g>
<!-- Node1&#45;&gt;Node12 -->
<g id="edge11_Node000001_Node000012" class="edge">
<title>Node1&#45;&gt;Node12</title>
<g id="a_edge11_Node000001_Node000012"><a xlink:title=" ">
<path fill="none" stroke="#63b8ff" d="M54.1,-239.84C63.19,-214.82 90.14,-149.89 135.25,-117 137.03,-115.7 138.89,-114.5 140.81,-113.37"/>
<polygon fill="#63b8ff" stroke="#63b8ff" points="142.08,-116.65 149.49,-109.07 138.98,-110.37 142.08,-116.65"/>
</a>
</g>
</g>
<!-- Node13 -->
<g id="Node000013" class="node">
<title>Node13</title>
<g id="a_Node000013"><a xlink:href="group__ds18b20__base__driver.html#ga93cfb5e6ae40d2595d55aafcd947f4ba" target="_top" xlink:title="set the resolution in the scratchpad">
<polygon fill="white" stroke="#666666" points="261.88,-70 155.88,-70 155.88,-38 261.88,-38 261.88,-70"/>
<text xml:space="preserve" text-anchor="start" x="163.88" y="-56.5" font-family="Helvetica,sans-Serif" font-size="10.00">ds18b20_scratchpad</text>
<text xml:space="preserve" text-anchor="middle" x="208.88" y="-44.5" font-family="Helvetica,sans-Serif" font-size="10.00">_set_resolution</text>
</a>
</g>
</g>
<!-- Node1&#45;&gt;Node13 -->
<g id="edge12_Node000001_Node000013" class="edge">
<title>Node1&#45;&gt;Node13</title>
<g id="a_edge12_Node000001_Node000013"><a xlink:title=" ">
<path fill="none" stroke="#63b8ff" d="M52.78,-239.87C59.53,-210.58 83.02,-124.94 135.25,-79 138.39,-76.24 141.85,-73.78 145.5,-71.59"/>
<polygon fill="#63b8ff" stroke="#63b8ff" points="146.92,-74.8 154.2,-67.09 143.7,-68.58 146.92,-74.8"/>
</a>
</g>
</g>
<!-- Node14 -->
<g id="Node000014" class="node">
<title>Node14</title>
<g id="a_Node000014"><a xlink:href="group__ds18b20__base__driver.html#gadd246c4e8a5887a1acd710dee214323c" target="_top" xlink:title="set the chip mode">
<polygon fill="white" stroke="#666666" points="259.25,-20 158.5,-20 158.5,0 259.25,0 259.25,-20"/>
<text xml:space="preserve" text-anchor="middle" x="208.88" y="-6.5" font-family="Helvetica,sans-Serif" font-size="10.00">ds18b20_set_mode</text>
</a>
</g>
</g>
<!-- Node1&#45;&gt;Node14 -->
<g id="edge13_Node000001_Node000014" class="edge">
<title>Node1&#45;&gt;Node14</title>
<g id="a_edge13_Node000001_Node000014"><a xlink:title=" ">
<path fill="none" stroke="#63b8ff" d="M51.36,-239.59C54.42,-204.3 69.3,-88.08 135.25,-29 139.01,-25.63 143.3,-22.85 147.86,-20.55"/>
<polygon fill="#63b8ff" stroke="#63b8ff" points="148.92,-23.9 156.81,-16.83 146.23,-17.44 148.92,-23.9"/>
</a>
</g>
</g>
</g>
</svg>
